<svg xmlns="http://www.w3.org/2000/svg" viewBox="0 0 160 40" role="img" aria-labelledby="title desc">
  <title id="title">Logotipo AIFA</title>
  <desc id="desc">Marca genérica del Aeropuerto Internacional Felipe Ángeles.</desc>
  <rect width="160" height="40" rx="6" fill="#0d1b2a" />
  <path
    d="M33.4 29.5h-6.7l-2 5.7h-6.1L26.3 10h7.3l7.8 25.2h-6.2zm-5.6-4.6h4.5L30 17.8h-.1zM68.7 35.2h-6.1V23.7l-8.6 11.5h-5.4V10h6.1v11.4L63.4 10h5.3v25.2zM96.9 35.2h-6.2l-1.1-3.6h-7.7l-1.2 3.6h-6L83.1 10h7.8l6 25.2zm-8.6-8.7-2.5-8.4-2.6 8.4zM119.5 35.2H113V15h-6.6v-5h19.7v5h-6.6zM140.6 35.7c-6.8 0-11.4-5.1-11.4-13s4.6-13 11.4-13 11.4 5.1 11.4 13-4.6 13-11.4 13zm0-5.4c3.1 0 5.2-2.8 5.2-7.6s-2-7.6-5.2-7.6-5.2 2.8-5.2 7.6 2 7.6 5.2 7.6z"
    fill="#f1f5f9"
  />
</svg>
